<svg xmlns="http://www.w3.org/2000/svg" version="1.1" xmlns:xlink="http://www.w3.org/1999/xlink" xmlns:svgjs="http://svgjs.dev/svgjs" width="100%" height="100%" viewBox="0 0 1000 600"><rect width="1000" height="600" x="0" y="0" fill="#2b3252"/><g><circle r="166.66666666666666" cx="503.7139689127604" cy="525.936186412091" fill="#fad744" transform="matrix(0.37086784766506575,0,0,0.3708678476650657,0,104.94718050657528)"/><path d="M412.95308727638195 470.0394518732822L412.95308727638195 531.1807511507702L440.18134588795664 531.1807511507702Q452.70851876214425 531.1807511507702 462.43677882496235 521.3437954447922L462.43677882496235 521.3437954447922Q469.311778254831 514.3601003717636 469.311778254831 500.61010151202623L469.311778254831 500.61010151202623Q469.311778254831 487.81118952993876 462.43677882496235 479.8764075792603L462.43677882496235 479.8764075792603Q453.93134474769397 470.0394518732822 440.18134588795664 470.0394518732822L440.18134588795664 470.0394518732822L412.95308727638195 470.0394518732822ZM394.8009148686655 600.9361801486866L393.8498279910157 600.9361801486866L393.8498279910157 457.62097464225457L403.9856967156837 452.8383663432155L440.18134588795664 452.8383663432155Q461.9748223415324 452.8383663432155 475.5346038257398 466.69706084611283L475.5346038257398 466.69706084611283Q488.44221145098726 479.8764075792603 488.44221145098726 500.61010151202623L488.44221145098726 500.61010151202623Q488.44221145098726 521.4524910879522 475.5346038257398 534.5231421779397L475.5346038257398 534.5231421779397Q461.8661266983724 548.381836680837 440.18134588795664 548.381836680837L440.18134588795664 548.381836680837L412.95308727638195 548.381836680837L412.95308727638195 592.3220504282583L394.8009148686655 600.9361801486866ZM518.0346003012914 600.9361801486866L517.0835134236418 600.9361801486866L517.0835134236418 498.70792775672663Q517.0835134236418 478.08292946712066 529.9911210488892 464.79488709081323L529.9911210488892 464.79488709081323Q543.5509025330966 450.9361925879159 565.3443789866724 450.9361925879159L565.3443789866724 450.9361925879159Q586.7302467783982 450.9361925879159 600.6704630136655 464.79488709081323L600.6704630136655 464.79488709081323Q613.578070638913 477.5937990729007 613.578070638913 498.70792775672663L613.578070638913 498.70792775672663L613.578070638913 592.3220504282583L595.4258982311965 600.9361801486866L594.4748113535468 600.9361801486866L594.4748113535468 533.6807509434498L536.186772709008 533.6807509434498L536.186772709008 592.3220504282583L518.0346003012914 600.9361801486866ZM536.186772709008 498.70792775672663L536.186772709008 516.2894480378532L594.4748113535468 516.2894480378532L594.4748113535468 498.70792775672663Q594.4748113535468 485.9090157746391 587.5998119236781 477.9742338239606L587.5998119236781 477.9742338239606Q579.0943778464095 468.1372781179826 565.3443789866724 468.1372781179826Q551.567206216145 468.1372781179826 543.0889460496667 477.9742338239606L543.0889460496667 477.9742338239606Q536.186772709008 485.9090157746391 536.186772709008 498.70792775672663L536.186772709008 498.70792775672663Z " fill="#2b3252" transform="matrix(0.37086784766506575,0,0,0.3708678476650657,0,104.94718050657528)"/><path d="M772.5779896131302 471.67858976006386L772.5779896131302 532.0542548326786L799.4652857921348 532.0542548326786Q811.8355887247905 532.0542548326786 821.4420278785664 522.3404811632179L821.4420278785664 522.3404811632179Q828.2309359956204 515.4442385304792 828.2309359956204 501.86642229637124L828.2309359956204 501.86642229637124Q828.2309359956204 489.22778307450386 821.4420278785664 481.39236342952455L821.4420278785664 481.39236342952455Q813.0431020262428 471.67858976006386 799.4652857921348 471.67858976006386L799.4652857921348 471.67858976006386L772.5779896131302 471.67858976006386ZM754.6531254937939 600.9361802733017L753.7139484815533 600.9361802733017L753.7139484815533 459.4156213430928L763.7228920691467 454.69290265296826L799.4652857921348 454.69290265296826Q820.9858561869067 454.69290265296826 834.3758370185666 468.37805340276094L834.3758370185666 468.37805340276094Q847.1218107561186 481.39236342952455 847.1218107561186 501.86642229637124L847.1218107561186 501.86642229637124Q847.1218107561186 522.4478156789025 834.3758370185666 535.3547911899816L834.3758370185666 535.3547911899816Q820.8785216712221 549.0399419397742 799.4652857921348 549.0399419397742L799.4652857921348 549.0399419397742L772.5779896131302 549.0399419397742L772.5779896131302 592.4299199052932L754.6531254937939 600.9361802733017ZM881.0663513413886 600.9361802733017L880.1271743291479 600.9361802733017L880.1271743291479 459.4156213430928L898.0520384484842 450.9361946040056L898.9912154607248 450.9361946040056L898.9912154607248 499.50506295130896Q906.0752934959116 491.4818079038815 919.2774389251233 491.4818079038815L919.2774389251233 491.4818079038815Q935.59228530919 491.4818079038815 946.7282413114722 502.161592214504L946.7282413114722 502.161592214504Q958.4277035210989 513.4853836192344 958.4277035210989 529.2367237959566L958.4277035210989 529.2367237959566L958.4277035210989 592.4299199052932L940.5028394017627 600.9361802733017L939.563662389522 600.9361802733017L939.563662389522 529.2367237959566Q939.563662389522 518.369104082886 933.6602640268663 513.3243818457074Q927.7568656642106 508.27965960852896 919.2774389251233 508.27965960852896Q910.7980121860362 508.27965960852896 904.8946138233805 513.3243818457074Q898.9912154607248 518.369104082886 898.9912154607248 529.2367237959566L898.9912154607248 529.2367237959566L898.9912154607248 592.4299199052932L881.0663513413886 600.9361802733017ZM1064.0985342126355 489.60345387940015L1065.0377112248761 489.60345387940015L1065.0377112248761 561.3029103567453Q1065.0377112248761 576.8664151310193 1053.3382490152494 588.3780419381978L1053.3382490152494 588.3780419381978Q1042.3901284154153 599.030992619899 1025.8874466289003 599.030992619899L1025.8874466289003 599.030992619899Q1009.5726002448339 599.030992619899 998.4366442425517 588.3780419381978L998.4366442425517 588.3780419381978Q986.7371820329249 577.0542505334674 986.7371820329249 561.3029103567453L986.7371820329249 561.3029103567453L986.7371820329249 498.10971424740853L1004.6620461522612 489.60345387940015L1005.6012231645018 489.60345387940015L1005.6012231645018 561.3029103567453Q1005.6012231645018 572.1436964408947 1011.5046215271575 577.1884186780733Q1017.381186260892 582.2599745441728 1025.8874466289003 582.2599745441728Q1034.3668733679879 582.2599745441728 1040.2702717306433 577.1884186780733Q1046.1736700932993 572.1436964408947 1046.1736700932993 561.3029103567453L1046.1736700932993 561.3029103567453L1046.1736700932993 498.10971424740853L1064.0985342126355 489.60345387940015ZM1094.2863667489428 600.9361802733017L1093.3203561077808 600.9361802733017L1093.3203561077808 529.2367237959566Q1093.3203561077808 513.6732190216826 1105.0198183174075 502.161592214504L1105.0198183174075 502.161592214504Q1115.9679389172416 491.4818079038815 1132.4706207037561 491.4818079038815L1132.4706207037561 491.4818079038815Q1147.4706192706858 491.4818079038815 1158.4187398705199 502.42992850371564L1158.4187398705199 502.42992850371564Q1160.511762926371 504.52295155956625 1162.2022815484038 507.34048259628827L1162.2022815484038 507.34048259628827Q1163.892800170437 504.60345244632975 1165.9589895973668 502.5372630194003L1165.9589895973668 502.5372630194003Q1177.7657863226777 491.4818079038815 1191.9071087641305 491.4818079038815L1191.9071087641305 491.4818079038815Q1208.2219551481967 491.4818079038815 1219.3579111504791 502.161592214504L1219.3579111504791 502.161592214504Q1231.0573733601059 513.4853836192344 1231.0573733601059 529.2367237959566L1231.0573733601059 529.2367237959566L1231.0573733601059 592.4299199052932L1213.1325092407697 600.9361802733017L1212.193332228529 600.9361802733017L1212.193332228529 529.2367237959566Q1212.193332228529 518.369104082886 1206.289933865873 513.3243818457074Q1200.4133691321385 508.27965960852896 1191.9071087641305 508.27965960852896Q1183.427682025043 508.27965960852896 1177.5242836623875 513.3243818457074Q1171.620885299732 518.369104082886 1171.620885299732 529.2367237959566L1171.620885299732 529.2367237959566L1171.620885299732 592.4299199052932L1153.6960211803957 600.9361802733017L1152.756844168155 600.9361802733017L1152.756844168155 529.2367237959566Q1152.756844168155 518.369104082886 1146.8534458054992 513.3243818457074Q1140.9768810717646 508.27965960852896 1132.4706207037561 508.27965960852896Q1123.991193964669 508.27965960852896 1118.0877956020136 513.3243818457074Q1112.211230868279 518.369104082886 1112.211230868279 529.2367237959566L1112.211230868279 529.2367237959566L1112.211230868279 592.4299199052932L1094.2863667489428 600.9361802733017ZM1265.028747574297 600.9361802733017L1264.0895705620565 600.9361802733017L1264.0895705620565 459.4156213430928L1282.0144346813927 450.9361946040056L1282.9536116936333 450.9361946040056L1282.9536116936333 592.4299199052932L1265.028747574297 600.9361802733017ZM1387.6584317440079 529.2367237959566L1387.6584317440079 592.4299199052932L1369.7335676246717 600.9361802733017L1368.7943906124306 600.9361802733017L1368.7943906124306 591.0077375724716Q1361.254140885584 599.030992619899 1348.508167148032 599.030992619899L1348.508167148032 599.030992619899Q1330.8784729468289 599.030992619899 1321.0573647616834 588.3780419381978Q1311.236256576538 577.7250912564964 1311.236256576538 563.1812643812266L1311.236256576538 563.1812643812266Q1311.236256576538 548.1007649275334 1321.9160408871608 537.5283151325957L1321.9160408871608 537.5283151325957Q1332.1933207639659 527.3315361425541 1348.508167148032 527.3315361425541L1348.508167148032 527.3315361425541Q1360.1271284708955 527.3315361425541 1368.7943906124306 535.3547911899816L1368.7943906124306 535.3547911899816Q1368.7943906124306 518.6642740010186 1362.9446595076174 513.3780491035498L1362.9446595076174 513.3780491035498Q1357.2827638052522 508.27965960852896 1348.508167148032 508.27965960852896L1348.508167148032 508.27965960852896L1325.59224804936 508.27965960852896L1325.59224804936 507.34048259628827L1333.1324977762065 491.4818079038815L1348.508167148032 491.4818079038815Q1365.010848934547 491.4818079038815 1375.9589695343811 502.161592214504L1375.9589695343811 502.161592214504Q1387.6584317440079 513.5658845059979 1387.6584317440079 529.2367237959566L1387.6584317440079 529.2367237959566ZM1329.7514605321398 563.1812643812266L1329.7514605321398 563.1812643812266Q1329.7514605321398 571.5801902335504 1334.8230163982398 577.0542505334674L1334.8230163982398 577.0542505334674Q1339.7335704908123 582.3404754309363 1348.6155016637172 582.3404754309363L1348.6155016637172 582.3404754309363Q1357.8462700125965 582.3404754309363 1362.9446595076174 576.9737496467039L1362.9446595076174 576.9737496467039Q1368.6065552099826 570.9361831394424 1368.6065552099826 563.3690997836748L1368.6065552099826 563.3690997836748Q1368.6065552099826 554.8896730445874 1362.7568241051695 549.6034481471186Q1356.9070930003559 544.3172232496497 1348.6960025504804 544.3172232496497L1348.6960025504804 544.3172232496497Q1340.1092412957087 544.3172232496497 1334.9303509139245 549.8986180652514Q1329.7514605321398 555.4531792519319 1329.7514605321398 563.1812643812266ZM1416.9070872680745 600.9361802733017L1415.9679102558339 600.9361802733017L1415.9679102558339 529.2367237959566Q1415.9679102558339 513.6732190216826 1427.6673724654606 502.161592214504L1427.6673724654606 502.161592214504Q1438.6154930652947 491.4818079038815 1455.1181748518093 491.4818079038815L1455.1181748518093 491.4818079038815Q1471.433021235876 491.4818079038815 1482.568977238158 502.161592214504L1482.568977238158 502.161592214504Q1494.2684394477847 513.4853836192344 1494.2684394477847 529.2367237959566L1494.2684394477847 529.2367237959566L1494.2684394477847 592.4299199052932L1476.3435753284484 600.9361802733017L1475.4043983162078 600.9361802733017L1475.4043983162078 529.2367237959566Q1475.4043983162078 518.369104082886 1469.5009999535519 513.3243818457074Q1463.5976015908964 508.27965960852896 1455.1181748518093 508.27965960852896Q1446.6119144838008 508.27965960852896 1440.7353497500662 513.3243818457074Q1434.8319513874108 518.369104082886 1434.8319513874108 529.2367237959566L1434.8319513874108 529.2367237959566L1434.8319513874108 592.4299199052932L1416.9070872680745 600.9361802733017ZM1528.6959853536355 472.5372658855411Q1525.395448996333 469.12939501255346 1525.395448996333 464.3798426935078Q1525.395448996333 459.60345674554094 1528.6959853536355 456.2224195014745Q1531.9965217109389 452.81454862848693 1536.719240401063 452.81454862848693Q1541.4419590911875 452.81454862848693 1544.7424954484904 456.2224195014745Q1548.0430318057934 459.60345674554094 1548.0430318057934 464.3798426935078Q1548.0430318057934 469.12939501255346 1544.7424954484904 472.5372658855411Q1541.4419590911875 475.9183031296075 1536.719240401063 475.9183031296075Q1531.9965217109389 475.9183031296075 1528.6959853536355 472.5372658855411ZM1528.212980033055 600.9361802733017L1527.2738030208143 600.9361802733017L1527.2738030208143 498.10971424740853L1545.1986671401505 489.60345387940015L1546.1378441523912 489.60345387940015L1546.1378441523912 592.4299199052932L1528.212980033055 600.9361802733017ZM1660.2881015830148 600.9361802733017L1659.3489245707738 600.9361802733017L1659.3489245707738 499.98806827188986Q1659.3489245707738 479.62134392072784 1672.0948983083258 466.4996993782796L1672.0948983083258 466.4996993782796Q1685.4848791399859 452.81454862848693 1707.005449534758 452.81454862848693L1707.005449534758 452.81454862848693Q1728.1235154957126 452.81454862848693 1741.8891671322685 466.4996993782796L1741.8891671322685 466.4996993782796Q1754.6351408698206 479.13833860014694 1754.6351408698206 499.98806827188986L1754.6351408698206 499.98806827188986L1754.6351408698206 592.4299199052932L1736.7102767504844 600.9361802733017L1735.7710997382437 600.9361802733017L1735.7710997382437 534.5229486934254L1678.212965702351 534.5229486934254L1678.212965702351 592.4299199052932L1660.2881015830148 600.9361802733017ZM1678.212965702351 499.98806827188986L1678.212965702351 517.3494261838817L1735.7710997382437 517.3494261838817L1735.7710997382437 499.98806827188986Q1735.7710997382437 487.34942905002254 1728.9821916211895 479.51400940504317L1728.9821916211895 479.51400940504317Q1720.583265768866 469.80023573558253 1707.005449534758 469.80023573558253Q1693.4007996717287 469.80023573558253 1685.0018738194049 479.51400940504317L1685.0018738194049 479.51400940504317Q1678.212965702351 487.34942905002254 1678.212965702351 499.98806827188986L1678.212965702351 499.98806827188986ZM1788.6065150840118 600.9361802733017L1787.6405044428498 600.9361802733017L1787.6405044428498 529.2367237959566Q1787.6405044428498 513.6732190216826 1799.3399666524765 502.161592214504L1799.3399666524765 502.161592214504Q1810.2880872523106 491.4818079038815 1826.7907690388256 491.4818079038815L1826.7907690388256 491.4818079038815L1839.5367427763772 491.4818079038815L1839.5367427763772 492.44781854504333L1831.9964930495307 508.27965960852896L1826.7907690388256 508.27965960852896Q1818.311342299738 508.27965960852896 1812.4079439370826 513.3243818457074Q1806.531379203348 518.369104082886 1806.531379203348 529.2367237959566L1806.531379203348 529.2367237959566Q1806.531379203348 529.2367237959566 1806.531379203348 592.4299199052932L1806.531379203348 592.4299199052932L1788.6065150840118 600.9361802733017ZM1932.9177714220214 555.3726783651684L1933.883782063183 555.3726783651684L1933.883782063183 561.3029103567453Q1933.883782063183 576.8664151310193 1922.1843198535566 588.3780419381978L1922.1843198535566 588.3780419381978Q1911.2361992537226 599.030992619899 1894.7335174672075 599.030992619899L1894.7335174672075 599.030992619899Q1878.39183745422 599.030992619899 1867.282715080859 588.3780419381978L1867.282715080859 588.3780419381978Q1855.5832528712322 577.0542505334674 1855.5832528712322 561.3029103567453L1855.5832528712322 561.3029103567453L1855.5832528712322 529.2367237959566Q1855.5832528712322 513.6732190216826 1867.282715080859 502.161592214504L1867.282715080859 502.161592214504Q1878.2040020517716 491.4818079038815 1894.7335174672075 491.4818079038815L1894.7335174672075 491.4818079038815Q1910.7531939331416 491.4818079038815 1922.1843198535566 502.161592214504L1922.1843198535566 502.161592214504Q1933.883782063183 513.1097128143381 1933.883782063183 526.499693645998L1933.883782063183 526.499693645998L1933.883782063183 526.6875290484461L1876.3256480272903 571.7680256359984Q1877.747830360112 574.988061106538 1880.2970251076226 577.1615850491521L1880.2970251076226 577.1615850491521Q1886.2272570991995 582.2599745441728 1894.7335174672075 582.2599745441728Q1903.212944206295 582.2599745441728 1909.1163425689506 577.1615850491521Q1914.9929073026851 572.0631955541312 1914.9929073026851 563.8521051042557L1914.9929073026851 563.8521051042557L1932.9177714220214 555.3726783651684ZM1874.447294002809 529.2367237959566L1874.447294002809 552.7161491019733L1913.8658948879965 520.7304634279482Q1912.3632116684112 516.1150792535084 1909.170009826793 513.3780491035498L1909.170009826793 513.3780491035498Q1903.212944206295 508.27965960852896 1894.7335174672075 508.27965960852896Q1886.2272570991995 508.27965960852896 1880.3238587365436 513.3243818457074Q1874.447294002809 518.369104082886 1874.447294002809 529.2367237959566L1874.447294002809 529.2367237959566ZM1963.1056039583286 600.9361802733017L1962.166426946088 600.9361802733017L1962.166426946088 529.2367237959566Q1962.166426946088 513.6732190216826 1973.8658891557147 502.161592214504L1973.8658891557147 502.161592214504Q1984.8140097555488 491.4818079038815 2001.3166915420638 491.4818079038815L2001.3166915420638 491.4818079038815Q2017.63153792613 491.4818079038815 2028.7674939284125 502.161592214504L2028.7674939284125 502.161592214504Q2040.4669561380392 513.4853836192344 2040.4669561380392 529.2367237959566L2040.4669561380392 529.2367237959566L2040.4669561380392 592.4299199052932L2022.5420920187025 600.9361802733017L2021.602915006462 600.9361802733017L2021.602915006462 529.2367237959566Q2021.602915006462 518.369104082886 2015.6995166438064 513.3243818457074Q2009.8229519100719 508.27965960852896 2001.3166915420638 508.27965960852896Q1992.8372648029763 508.27965960852896 1986.9338664403208 513.3243818457074Q1981.0304680776653 518.369104082886 1981.0304680776653 529.2367237959566L1981.0304680776653 529.2367237959566L1981.0304680776653 592.4299199052932L1963.1056039583286 600.9361802733017ZM2087.640475781442 529.2367237959566L2087.640475781442 561.3029103567453Q2087.640475781442 572.1436964408947 2093.5438741440976 577.1884186780733Q2099.4472725067535 582.2599745441728 2107.9266992458406 582.2599745441728Q2116.4061259849277 582.2599745441728 2122.309524347583 577.1884186780733Q2128.212922710239 572.1436964408947 2128.212922710239 561.3029103567453L2128.212922710239 561.3029103567453L2128.212922710239 529.2367237959566Q2128.212922710239 518.369104082886 2122.309524347583 513.3243818457074Q2116.4061259849277 508.27965960852896 2107.9266992458406 508.27965960852896Q2099.4472725067535 508.27965960852896 2093.5438741440976 513.3243818457074Q2087.640475781442 518.369104082886 2087.640475781442 529.2367237959566L2087.640475781442 529.2367237959566ZM2068.776434649865 561.3029103567453L2068.776434649865 561.3029103567453L2068.776434649865 529.2367237959566Q2068.776434649865 513.6732190216826 2080.475896859492 502.161592214504L2080.475896859492 502.161592214504Q2091.424017459326 491.4818079038815 2107.9266992458406 491.4818079038815L2107.9266992458406 491.4818079038815Q2120.37750306526 491.4818079038815 2128.212922710239 499.50506295130896L2128.212922710239 499.50506295130896L2128.212922710239 459.4156213430928L2146.1377868295754 450.9361946040056L2147.076963841816 450.9361946040056L2147.076963841816 561.3029103567453Q2147.076963841816 576.8664151310193 2135.3775016321893 588.3780419381978L2135.3775016321893 588.3780419381978Q2124.429381032355 599.030992619899 2107.9266992458406 599.030992619899L2107.9266992458406 599.030992619899Q2091.611852861774 599.030992619899 2080.475896859492 588.3780419381978L2080.475896859492 588.3780419381978Q2068.776434649865 577.0542505334674 2068.776434649865 561.3029103567453ZM2177.2647963781233 563.8521051042557L2177.2647963781233 563.8521051042557L2195.18966049746 555.3726783651684L2196.1288375097006 555.3726783651684L2196.1288375097006 562.9129280920149Q2196.1288375097006 573.4853778869528 2202.2737385326463 578.9326045579487L2202.2737385326463 578.9326045579487Q2208.1234696374595 584.1383285686543 2216.4150609740987 584.1383285686543L2216.4150609740987 584.1383285686543Q2226.0215001278752 584.1383285686543 2231.4150595410283 577.9934275457081L2231.4150595410283 577.9934275457081Q2237.076955243394 571.5801902335504 2237.076955243394 564.0399405067037L2237.076955243394 564.0399405067037Q2237.076955243394 555.9361845725128 2231.0393887361324 551.2134658823883L2231.0393887361324 551.2134658823883Q2225.833664725427 547.1615879152928 2216.3077264584144 547.1615879152928L2216.3077264584144 547.1615879152928Q2199.5367083826877 547.1615879152928 2189.796101084306 539.7823399619733L2189.796101084306 539.7823399619733Q2181.2361734584556 533.3691026498154 2181.2361734584556 519.8986209313921L2181.2361734584556 519.8986209313921Q2181.2361734584556 506.77697638894387 2193.2039719572936 498.19021513417204L2193.2039719572936 498.19021513417204Q2202.542074821858 491.4818079038815 2216.4150609740987 491.4818079038815L2216.4150609740987 491.4818079038815Q2229.7245409189954 491.4818079038815 2239.5188154752195 499.80023286944174L2239.5188154752195 499.80023286944174Q2247.059065202066 506.29397106836296 2248.856918339784 514.8807323231349L2248.856918339784 514.8807323231349L2230.9320542204478 523.3869926911432L2229.992877208207 523.3869926911432L2229.992877208207 520.6499625411847Q2229.992877208207 515.739408448612 2227.1753461714848 512.251036688861L2227.1753461714848 512.251036688861Q2222.6404628838086 506.40130558404763 2214.2415370314848 506.40130558404763L2214.2415370314848 506.40130558404763Q2207.5331298011943 506.40130558404763 2203.347083689493 510.5873516957489Q2199.161037577792 514.8002314363714 2199.161037577792 519.8986209313921L2199.161037577792 519.8986209313921Q2199.161037577792 525.9361874386536 2204.2325934438913 529.5050600851682L2204.2325934438913 529.5050600851682Q2207.076958109534 531.4907486253342 2216.3077264584144 531.4907486253342L2216.3077264584144 531.4907486253342Q2235.466937508124 531.4907486253342 2245.1002102908215 540.2653452825541L2245.1002102908215 540.2653452825541Q2255.5653255700745 549.7912835495667 2255.5653255700745 565.086452034629L2255.5653255700745 565.086452034629Q2255.5653255700745 577.3494204516 2244.7245394859247 588.4853764538825L2244.7245394859247 588.4853764538825Q2234.4204259801986 599.030992619899 2216.4150609740987 599.030992619899L2216.4150609740987 599.030992619899Q2200.1002145900325 599.030992619899 2188.96425858775 589.9880596734674L2188.96425858775 589.9880596734674Q2177.2647963781233 580.462121406455 2177.2647963781233 563.8521051042557ZM2358.3917915959673 555.3726783651684L2359.330968608208 555.3726783651684L2359.330968608208 561.3029103567453Q2359.330968608208 576.8664151310193 2347.6315063985817 588.3780419381978L2347.6315063985817 588.3780419381978Q2336.6833857987476 599.030992619899 2320.1807040122326 599.030992619899L2320.1807040122326 599.030992619899Q2303.8658576281664 599.030992619899 2292.729901625884 588.3780419381978L2292.729901625884 588.3780419381978Q2281.030439416257 577.0542505334674 2281.030439416257 561.3029103567453L2281.030439416257 561.3029103567453L2281.030439416257 529.2367237959566Q2281.030439416257 513.6732190216826 2292.729901625884 502.161592214504L2292.729901625884 502.161592214504Q2303.678022225718 491.4818079038815 2320.1807040122326 491.4818079038815L2320.1807040122326 491.4818079038815Q2336.2272141070875 491.4818079038815 2347.6315063985817 502.161592214504L2347.6315063985817 502.161592214504Q2359.330968608208 513.1097128143381 2359.330968608208 526.499693645998L2359.330968608208 526.499693645998L2359.330968608208 526.6875290484461L2301.7996682012367 571.7680256359984Q2303.195016905137 574.988061106538 2305.744211652647 577.1615850491521L2305.744211652647 577.1615850491521Q2311.7012772731455 582.2599745441728 2320.1807040122326 582.2599745441728Q2328.6601307513197 582.2599745441728 2334.5635291139756 577.1615850491521Q2340.466927476631 572.0631955541312 2340.466927476631 563.8521051042557L2340.466927476631 563.8521051042557L2358.3917915959673 555.3726783651684ZM2299.894480547834 529.2367237959566L2299.894480547834 552.7161491019733L2339.3399150619425 520.7304634279482Q2337.837231842357 516.1150792535084 2334.6171963718175 513.3780491035498L2334.6171963718175 513.3780491035498Q2328.6601307513197 508.27965960852896 2320.1807040122326 508.27965960852896Q2311.7012772731455 508.27965960852896 2305.79787891049 513.3243818457074Q2299.894480547834 518.369104082886 2299.894480547834 529.2367237959566L2299.894480547834 529.2367237959566Z " fill="#fad744" transform="matrix(0.37086784766506575,0,0,0.3708678476650657,0,104.94718050657528)"/></g></svg>